STARTFONT 2.1
FONT -Hiro-Maru-Bold-R-Normal--18-170-75-75-C-90-ISO8859-1
SIZE 9 75 75
FONTBOUNDINGBOX 9 18 0 -5
STARTPROPERTIES 3
  COPYRIGHT "Copyright (C) 2010-2021 Hiroyuki Ohsaki (http://lsnl.jp/~ohsaki/).  License: GPLv2+: GNU GPL version 2 or later <http://gnu.org/licenses/gpl.html> with the GNU Font Embedding Exception.  URL: https://github.com/h-ohsaki/fonts."
  FONT_ASCENT 15
  FONT_DESCENT 3
ENDPROPERTIES

CHARS 129

STARTCHAR 0000
ENCODING 0
SWIDTH 900 0
DWIDTH 9 0
BBX 9 18 0 -4
BITMAP
0000
0000
0000
0000
0000
0000
0000
0000
0000
0000
0000
0000
0000
0000
0000
0000
0000
0000
ENDCHAR

STARTCHAR 0001
ENCODING 1
SWIDTH 900 0
DWIDTH 9 0
BBX 9 18 0 -4
BITMAP
0000
0000
0000
0000
0000
0000
0000
0000
0000
0000
0000
0000
0000
0000
0000
0000
0000
0000
ENDCHAR

STARTCHAR 0002
ENCODING 2
SWIDTH 900 0
DWIDTH 9 0
BBX 9 18 0 -4
BITMAP
0000
0000
0000
0000
0000
0000
0000
0000
0000
0000
0000
0000
0000
0000
0000
0000
0000
0000
ENDCHAR

STARTCHAR 0003
ENCODING 3
SWIDTH 900 0
DWIDTH 9 0
BBX 9 18 0 -4
BITMAP
0000
0000
0000
0000
0000
0000
0000
0000
0000
0000
0000
0000
0000
0000
0000
0000
0000
0000
ENDCHAR

STARTCHAR 0004
ENCODING 4
SWIDTH 900 0
DWIDTH 9 0
BBX 9 18 0 -4
BITMAP
0000
0000
0000
0000
0000
0000
0000
0000
0000
0000
0000
0000
0000
0000
0000
0000
0000
0000
ENDCHAR

STARTCHAR 0005
ENCODING 5
SWIDTH 900 0
DWIDTH 9 0
BBX 9 18 0 -4
BITMAP
0000
0000
0000
0000
0000
0000
0000
0000
0000
0000
0000
0000
0000
0000
0000
0000
0000
0000
ENDCHAR

STARTCHAR 0006
ENCODING 6
SWIDTH 900 0
DWIDTH 9 0
BBX 9 18 0 -4
BITMAP
0000
0000
0000
0000
0000
0000
0000
0000
0000
0000
0000
0000
0000
0000
0000
0000
0000
0000
ENDCHAR

STARTCHAR 0007
ENCODING 7
SWIDTH 900 0
DWIDTH 9 0
BBX 9 18 0 -4
BITMAP
0000
0000
0000
0000
0000
0000
0000
0000
0000
0000
0000
0000
0000
0000
0000
0000
0000
0000
ENDCHAR

STARTCHAR 0008
ENCODING 8
SWIDTH 900 0
DWIDTH 9 0
BBX 9 18 0 -4
BITMAP
0000
0000
0000
0000
0000
0000
0000
0000
0000
0000
0000
0000
0000
0000
0000
0000
0000
0000
ENDCHAR

STARTCHAR 0009
ENCODING 9
SWIDTH 900 0
DWIDTH 9 0
BBX 9 18 0 -4
BITMAP
0000
0000
0000
0000
0000
0000
0000
0000
0000
0000
0000
0000
0000
0000
0000
0000
0000
0000
ENDCHAR

STARTCHAR 000a
ENCODING 10
SWIDTH 900 0
DWIDTH 9 0
BBX 9 18 0 -4
BITMAP
0000
0000
0000
0000
0000
0000
0000
0000
0000
0000
0000
0000
0000
0000
0000
0000
0000
0000
ENDCHAR

STARTCHAR 000b
ENCODING 11
SWIDTH 900 0
DWIDTH 9 0
BBX 9 18 0 -4
BITMAP
0000
0000
0000
0000
0000
0000
0000
0000
0000
0000
0000
0000
0000
0000
0000
0000
0000
0000
ENDCHAR

STARTCHAR 000c
ENCODING 12
SWIDTH 900 0
DWIDTH 9 0
BBX 9 18 0 -4
BITMAP
0000
0000
0000
0000
0000
0000
0000
0000
0000
0000
0000
0000
0000
0000
0000
0000
0000
0000
ENDCHAR

STARTCHAR 000d
ENCODING 13
SWIDTH 900 0
DWIDTH 9 0
BBX 9 18 0 -4
BITMAP
0000
0000
0000
0000
0000
0000
0000
0000
0000
0000
0000
0000
0000
0000
0000
0000
0000
0000
ENDCHAR

STARTCHAR 000e
ENCODING 14
SWIDTH 900 0
DWIDTH 9 0
BBX 9 18 0 -4
BITMAP
0000
0000
0000
0000
0000
0000
0000
0000
0000
0000
0000
0000
0000
0000
0000
0000
0000
0000
ENDCHAR

STARTCHAR 000f
ENCODING 15
SWIDTH 900 0
DWIDTH 9 0
BBX 9 18 0 -4
BITMAP
0000
0000
0000
0000
0000
0000
0000
0000
0000
0000
0000
0000
0000
0000
0000
0000
0000
0000
ENDCHAR

STARTCHAR 0010
ENCODING 16
SWIDTH 900 0
DWIDTH 9 0
BBX 9 18 0 -4
BITMAP
0000
0000
0000
0000
0000
0000
0000
0000
0000
0000
0000
0000
0000
0000
0000
0000
0000
0000
ENDCHAR

STARTCHAR 0011
ENCODING 17
SWIDTH 900 0
DWIDTH 9 0
BBX 9 18 0 -4
BITMAP
0000
0000
0000
0000
0000
0000
0000
0000
0000
0000
0000
0000
0000
0000
0000
0000
0000
0000
ENDCHAR

STARTCHAR 0012
ENCODING 18
SWIDTH 900 0
DWIDTH 9 0
BBX 9 18 0 -4
BITMAP
0000
0000
0000
0000
0000
0000
0000
0000
0000
0000
0000
0000
0000
0000
0000
0000
0000
0000
ENDCHAR

STARTCHAR 0013
ENCODING 19
SWIDTH 900 0
DWIDTH 9 0
BBX 9 18 0 -4
BITMAP
0000
0000
0000
0000
0000
0000
0000
0000
0000
0000
0000
0000
0000
0000
0000
0000
0000
0000
ENDCHAR

STARTCHAR 0014
ENCODING 20
SWIDTH 900 0
DWIDTH 9 0
BBX 9 18 0 -4
BITMAP
0000
0000
0000
0000
0000
0000
0000
0000
0000
0000
0000
0000
0000
0000
0000
0000
0000
0000
ENDCHAR

STARTCHAR 0015
ENCODING 21
SWIDTH 900 0
DWIDTH 9 0
BBX 9 18 0 -4
BITMAP
0000
0000
0000
0000
0000
0000
0000
0000
0000
0000
0000
0000
0000
0000
0000
0000
0000
0000
ENDCHAR

STARTCHAR 0016
ENCODING 22
SWIDTH 900 0
DWIDTH 9 0
BBX 9 18 0 -4
BITMAP
0000
0000
0000
0000
0000
0000
0000
0000
0000
0000
0000
0000
0000
0000
0000
0000
0000
0000
ENDCHAR

STARTCHAR 0017
ENCODING 23
SWIDTH 900 0
DWIDTH 9 0
BBX 9 18 0 -4
BITMAP
0000
0000
0000
0000
0000
0000
0000
0000
0000
0000
0000
0000
0000
0000
0000
0000
0000
0000
ENDCHAR

STARTCHAR 0018
ENCODING 24
SWIDTH 900 0
DWIDTH 9 0
BBX 9 18 0 -4
BITMAP
0000
0000
0000
0000
0000
0000
0000
0000
0000
0000
0000
0000
0000
0000
0000
0000
0000
0000
ENDCHAR

STARTCHAR 0019
ENCODING 25
SWIDTH 900 0
DWIDTH 9 0
BBX 9 18 0 -4
BITMAP
0000
0000
0000
0000
0000
0000
0000
0000
0000
0000
0000
0000
0000
0000
0000
0000
0000
0000
ENDCHAR

STARTCHAR 001a
ENCODING 26
SWIDTH 900 0
DWIDTH 9 0
BBX 9 18 0 -4
BITMAP
0000
0000
0000
0000
0000
0000
0000
0000
0000
0000
0000
0000
0000
0000
0000
0000
0000
0000
ENDCHAR

STARTCHAR 001b
ENCODING 27
SWIDTH 900 0
DWIDTH 9 0
BBX 9 18 0 -4
BITMAP
0000
0000
0000
0000
0000
0000
0000
0000
0000
0000
0000
0000
0000
0000
0000
0000
0000
0000
ENDCHAR

STARTCHAR 001c
ENCODING 28
SWIDTH 900 0
DWIDTH 9 0
BBX 9 18 0 -4
BITMAP
0000
0000
0000
0000
0000
0000
0000
0000
0000
0000
0000
0000
0000
0000
0000
0000
0000
0000
ENDCHAR

STARTCHAR 001d
ENCODING 29
SWIDTH 900 0
DWIDTH 9 0
BBX 9 18 0 -4
BITMAP
0000
0000
0000
0000
0000
0000
0000
0000
0000
0000
0000
0000
0000
0000
0000
0000
0000
0000
ENDCHAR

STARTCHAR 001e
ENCODING 30
SWIDTH 900 0
DWIDTH 9 0
BBX 9 18 0 -4
BITMAP
0000
0000
0000
0000
0000
0000
0000
0000
0000
0000
0000
0000
0000
0000
0000
0000
0000
0000
ENDCHAR

STARTCHAR 001f
ENCODING 31
SWIDTH 900 0
DWIDTH 9 0
BBX 9 18 0 -4
BITMAP
0000
0000
0000
0000
0000
0000
0000
0000
0000
0000
0000
0000
0000
0000
0000
0000
0000
0000
ENDCHAR

STARTCHAR 0020
ENCODING 32
SWIDTH 900 0
DWIDTH 9 0
BBX 9 18 0 -4
BITMAP
0000
0000
0000
0000
0000
0000
0000
0000
0000
0000
0000
0000
0000
0000
0000
0000
0000
0000
ENDCHAR

STARTCHAR 0021
ENCODING 33
SWIDTH 900 0
DWIDTH 9 0
BBX 9 18 0 -4
BITMAP
0000
1800
1800
1800
1800
1800
1800
1800
1800
0000
1800
1800
0000
0000
0000
0000
0000
0000
ENDCHAR

STARTCHAR 0022
ENCODING 34
SWIDTH 900 0
DWIDTH 9 0
BBX 9 18 0 -4
BITMAP
0000
3600
3600
3600
0000
0000
0000
0000
0000
0000
0000
0000
0000
0000
0000
0000
0000
0000
ENDCHAR

STARTCHAR 0023
ENCODING 35
SWIDTH 900 0
DWIDTH 9 0
BBX 9 18 0 -4
BITMAP
0000
3600
3600
3600
7f00
3600
3600
3600
7f00
3600
3600
3600
0000
0000
0000
0000
0000
0000
ENDCHAR

STARTCHAR 0024
ENCODING 36
SWIDTH 900 0
DWIDTH 9 0
BBX 9 18 0 -4
BITMAP
1800
3c00
7e00
db00
d800
7800
3c00
1e00
1b00
db00
7e00
3c00
1800
0000
0000
0000
0000
0000
ENDCHAR

STARTCHAR 0025
ENCODING 37
SWIDTH 900 0
DWIDTH 9 0
BBX 9 18 0 -4
BITMAP
0000
7100
db00
de00
dc00
6800
1000
3600
7b00
5b00
db00
8600
0000
0000
0000
0000
0000
0000
ENDCHAR

STARTCHAR 0026
ENCODING 38
SWIDTH 900 0
DWIDTH 9 0
BBX 9 18 0 -4
BITMAP
1800
3c00
6600
6600
6600
3c00
3800
7000
db00
cf00
c600
6600
3b00
0000
0000
0000
0000
0000
ENDCHAR

STARTCHAR 0027
ENCODING 39
SWIDTH 900 0
DWIDTH 9 0
BBX 9 18 0 -4
BITMAP
1800
1800
1800
0000
0000
0000
0000
0000
0000
0000
0000
0000
0000
0000
0000
0000
0000
0000
ENDCHAR

STARTCHAR 0028
ENCODING 40
SWIDTH 900 0
DWIDTH 9 0
BBX 9 18 0 -4
BITMAP
0600
0c00
1800
3000
3000
6000
6000
6000
3000
3000
1800
0c00
0600
0000
0000
0000
0000
0000
ENDCHAR

STARTCHAR 0029
ENCODING 41
SWIDTH 900 0
DWIDTH 9 0
BBX 9 18 0 -4
BITMAP
6000
3000
1800
0c00
0c00
0600
0600
0600
0c00
0c00
1800
3000
6000
0000
0000
0000
0000
0000
ENDCHAR

STARTCHAR 002a
ENCODING 42
SWIDTH 900 0
DWIDTH 9 0
BBX 9 18 0 -4
BITMAP
0000
0000
1800
1800
7e00
3c00
1800
ff00
1800
3c00
7e00
1800
0000
0000
0000
0000
0000
0000
ENDCHAR

STARTCHAR 002b
ENCODING 43
SWIDTH 900 0
DWIDTH 9 0
BBX 9 18 0 -4
BITMAP
0000
0000
1800
1800
1800
1800
ff00
1800
1800
1800
1800
0000
0000
0000
0000
0000
0000
0000
ENDCHAR

STARTCHAR 002c
ENCODING 44
SWIDTH 900 0
DWIDTH 9 0
BBX 9 18 0 -4
BITMAP
0000
0000
0000
0000
0000
0000
0000
0000
0000
0000
0000
1c00
0c00
0c00
1800
0000
0000
0000
ENDCHAR

STARTCHAR 002d
ENCODING 45
SWIDTH 900 0
DWIDTH 9 0
BBX 9 18 0 -4
BITMAP
0000
0000
0000
0000
0000
0000
0000
ff00
0000
0000
0000
0000
0000
0000
0000
0000
0000
0000
ENDCHAR

STARTCHAR 002e
ENCODING 46
SWIDTH 900 0
DWIDTH 9 0
BBX 9 18 0 -4
BITMAP
0000
0000
0000
0000
0000
0000
0000
0000
0000
0000
1800
3c00
1800
0000
0000
0000
0000
0000
ENDCHAR

STARTCHAR 002f
ENCODING 47
SWIDTH 900 0
DWIDTH 9 0
BBX 9 18 0 -4
BITMAP
0000
0000
0100
0300
0600
0c00
1800
3000
6000
c000
8000
0000
0000
0000
0000
0000
0000
0000
ENDCHAR

STARTCHAR 0030
ENCODING 48
SWIDTH 900 0
DWIDTH 9 0
BBX 9 18 0 -4
BITMAP
3c00
6600
c300
c300
c700
cf00
db00
f300
e300
c300
c300
6600
3c00
0000
0000
0000
0000
0000
ENDCHAR

STARTCHAR 0031
ENCODING 49
SWIDTH 900 0
DWIDTH 9 0
BBX 9 18 0 -4
BITMAP
1800
3800
7800
d800
1800
1800
1800
1800
1800
1800
1800
1800
ff00
0000
0000
0000
0000
0000
ENDCHAR

STARTCHAR 0032
ENCODING 50
SWIDTH 900 0
DWIDTH 9 0
BBX 9 18 0 -4
BITMAP
7c00
c600
0300
0300
0300
0600
3c00
6000
c000
c000
c000
c000
ff00
0000
0000
0000
0000
0000
ENDCHAR

STARTCHAR 0033
ENCODING 51
SWIDTH 900 0
DWIDTH 9 0
BBX 9 18 0 -4
BITMAP
fc00
0600
0300
0300
0300
0600
7c00
0600
0300
0300
0300
0600
fc00
0000
0000
0000
0000
0000
ENDCHAR

STARTCHAR 0034
ENCODING 52
SWIDTH 900 0
DWIDTH 9 0
BBX 9 18 0 -4
BITMAP
0600
0e00
0e00
1e00
1e00
3600
3600
6600
6600
c600
ff00
0600
0600
0000
0000
0000
0000
0000
ENDCHAR

STARTCHAR 0035
ENCODING 53
SWIDTH 900 0
DWIDTH 9 0
BBX 9 18 0 -4
BITMAP
ff00
c000
c000
c000
c000
c000
fc00
0600
0300
0300
0300
0600
fc00
0000
0000
0000
0000
0000
ENDCHAR

STARTCHAR 0036
ENCODING 54
SWIDTH 900 0
DWIDTH 9 0
BBX 9 18 0 -4
BITMAP
3c00
6600
c300
c000
c000
fc00
e600
c300
c300
c300
c300
6600
3c00
0000
0000
0000
0000
0000
ENDCHAR

STARTCHAR 0037
ENCODING 55
SWIDTH 900 0
DWIDTH 9 0
BBX 9 18 0 -4
BITMAP
ff00
0300
0300
0300
0600
0600
0c00
1800
1800
3000
3000
3000
3000
0000
0000
0000
0000
0000
ENDCHAR

STARTCHAR 0038
ENCODING 56
SWIDTH 900 0
DWIDTH 9 0
BBX 9 18 0 -4
BITMAP
3c00
6600
c300
c300
c300
6600
3c00
6600
c300
c300
c300
6600
3c00
0000
0000
0000
0000
0000
ENDCHAR

STARTCHAR 0039
ENCODING 57
SWIDTH 900 0
DWIDTH 9 0
BBX 9 18 0 -4
BITMAP
3c00
6600
c300
c300
c300
6300
3f00
0300
0300
0300
c300
6600
3c00
0000
0000
0000
0000
0000
ENDCHAR

STARTCHAR 003a
ENCODING 58
SWIDTH 900 0
DWIDTH 9 0
BBX 9 18 0 -4
BITMAP
0000
0000
0000
1800
3c00
1800
0000
1800
3c00
1800
0000
0000
0000
0000
0000
0000
0000
0000
ENDCHAR

STARTCHAR 003b
ENCODING 59
SWIDTH 900 0
DWIDTH 9 0
BBX 9 18 0 -4
BITMAP
0000
0000
0000
1800
3c00
1800
0000
0000
3800
1800
1800
3000
0000
0000
0000
0000
0000
0000
ENDCHAR

STARTCHAR 003c
ENCODING 60
SWIDTH 900 0
DWIDTH 9 0
BBX 9 18 0 -4
BITMAP
0000
0300
0600
0c00
1800
3000
6000
3000
1800
0c00
0600
0300
0000
0000
0000
0000
0000
0000
ENDCHAR

STARTCHAR 003d
ENCODING 61
SWIDTH 900 0
DWIDTH 9 0
BBX 9 18 0 -4
BITMAP
0000
0000
0000
0000
0000
ff00
0000
0000
ff00
0000
0000
0000
0000
0000
0000
0000
0000
0000
ENDCHAR

STARTCHAR 003e
ENCODING 62
SWIDTH 900 0
DWIDTH 9 0
BBX 9 18 0 -4
BITMAP
0000
6000
3000
1800
0c00
0600
0300
0600
0c00
1800
3000
6000
0000
0000
0000
0000
0000
0000
ENDCHAR

STARTCHAR 003f
ENCODING 63
SWIDTH 900 0
DWIDTH 9 0
BBX 9 18 0 -4
BITMAP
3c00
6600
c300
0300
0300
0600
0c00
1800
1800
0000
1800
1800
0000
0000
0000
0000
0000
0000
ENDCHAR

STARTCHAR 0040
ENCODING 64
SWIDTH 900 0
DWIDTH 9 0
BBX 9 18 0 -4
BITMAP
3c00
4200
8100
9900
a500
a500
a500
a500
a500
9a00
8000
4000
3e00
0000
0000
0000
0000
0000
ENDCHAR

STARTCHAR 0041
ENCODING 65
SWIDTH 900 0
DWIDTH 9 0
BBX 9 18 0 -4
BITMAP
1800
3c00
3c00
6600
6600
c300
c300
ff00
c300
c300
c300
c300
c300
0000
0000
0000
0000
0000
ENDCHAR

STARTCHAR 0042
ENCODING 66
SWIDTH 900 0
DWIDTH 9 0
BBX 9 18 0 -4
BITMAP
fc00
c600
c300
c300
c600
fc00
c600
c300
c300
c300
c300
c600
fc00
0000
0000
0000
0000
0000
ENDCHAR

STARTCHAR 0043
ENCODING 67
SWIDTH 900 0
DWIDTH 9 0
BBX 9 18 0 -4
BITMAP
3c00
6600
c300
c000
c000
c000
c000
c000
c000
c000
c300
6600
3c00
0000
0000
0000
0000
0000
ENDCHAR

STARTCHAR 0044
ENCODING 68
SWIDTH 900 0
DWIDTH 9 0
BBX 9 18 0 -4
BITMAP
f800
cc00
c600
c300
c300
c300
c300
c300
c300
c300
c600
cc00
f800
0000
0000
0000
0000
0000
ENDCHAR

STARTCHAR 0045
ENCODING 69
SWIDTH 900 0
DWIDTH 9 0
BBX 9 18 0 -4
BITMAP
ff00
c000
c000
c000
c000
c000
fe00
c000
c000
c000
c000
c000
ff00
0000
0000
0000
0000
0000
ENDCHAR

STARTCHAR 0046
ENCODING 70
SWIDTH 900 0
DWIDTH 9 0
BBX 9 18 0 -4
BITMAP
ff00
c000
c000
c000
c000
c000
fe00
c000
c000
c000
c000
c000
c000
0000
0000
0000
0000
0000
ENDCHAR

STARTCHAR 0047
ENCODING 71
SWIDTH 900 0
DWIDTH 9 0
BBX 9 18 0 -4
BITMAP
3c00
6600
c300
c000
c000
c000
df00
c300
c300
c300
c700
6d00
3900
0000
0000
0000
0000
0000
ENDCHAR

STARTCHAR 0048
ENCODING 72
SWIDTH 900 0
DWIDTH 9 0
BBX 9 18 0 -4
BITMAP
c300
c300
c300
c300
c300
c300
ff00
c300
c300
c300
c300
c300
c300
0000
0000
0000
0000
0000
ENDCHAR

STARTCHAR 0049
ENCODING 73
SWIDTH 900 0
DWIDTH 9 0
BBX 9 18 0 -4
BITMAP
3c00
1800
1800
1800
1800
1800
1800
1800
1800
1800
1800
1800
3c00
0000
0000
0000
0000
0000
ENDCHAR

STARTCHAR 004a
ENCODING 74
SWIDTH 900 0
DWIDTH 9 0
BBX 9 18 0 -4
BITMAP
0600
0600
0600
0600
0600
0600
0600
0600
0600
0600
0600
c600
7c00
0000
0000
0000
0000
0000
ENDCHAR

STARTCHAR 004b
ENCODING 75
SWIDTH 900 0
DWIDTH 9 0
BBX 9 18 0 -4
BITMAP
c300
c600
cc00
d800
f000
e000
e000
f000
d800
cc00
c600
c300
c100
0000
0000
0000
0000
0000
ENDCHAR

STARTCHAR 004c
ENCODING 76
SWIDTH 900 0
DWIDTH 9 0
BBX 9 18 0 -4
BITMAP
c000
c000
c000
c000
c000
c000
c000
c000
c000
c000
c000
c000
ff00
0000
0000
0000
0000
0000
ENDCHAR

STARTCHAR 004d
ENCODING 77
SWIDTH 900 0
DWIDTH 9 0
BBX 9 18 0 -4
BITMAP
c300
c300
e700
e700
ff00
db00
db00
c300
c300
c300
c300
c300
c300
0000
0000
0000
0000
0000
ENDCHAR

STARTCHAR 004e
ENCODING 78
SWIDTH 900 0
DWIDTH 9 0
BBX 9 18 0 -4
BITMAP
c300
c300
e300
f300
f300
db00
cf00
c700
c700
c300
c300
c300
c300
0000
0000
0000
0000
0000
ENDCHAR

STARTCHAR 004f
ENCODING 79
SWIDTH 900 0
DWIDTH 9 0
BBX 9 18 0 -4
BITMAP
3c00
6600
c300
c300
c300
c300
c300
c300
c300
c300
c300
6600
3c00
0000
0000
0000
0000
0000
ENDCHAR

STARTCHAR 0050
ENCODING 80
SWIDTH 900 0
DWIDTH 9 0
BBX 9 18 0 -4
BITMAP
fc00
c600
c300
c300
c300
c600
fc00
c000
c000
c000
c000
c000
c000
0000
0000
0000
0000
0000
ENDCHAR

STARTCHAR 0051
ENCODING 81
SWIDTH 900 0
DWIDTH 9 0
BBX 9 18 0 -4
BITMAP
3c00
6600
c300
c300
c300
c300
c300
c300
f300
db00
da00
6400
3b00
0000
0000
0000
0000
0000
ENDCHAR

STARTCHAR 0052
ENCODING 82
SWIDTH 900 0
DWIDTH 9 0
BBX 9 18 0 -4
BITMAP
fc00
c600
c300
c300
c300
c600
fc00
d800
cc00
c600
c600
c300
c300
0000
0000
0000
0000
0000
ENDCHAR

STARTCHAR 0053
ENCODING 83
SWIDTH 900 0
DWIDTH 9 0
BBX 9 18 0 -4
BITMAP
3c00
6600
c300
c300
c000
6000
3c00
0600
0300
0300
c300
6600
3c00
0000
0000
0000
0000
0000
ENDCHAR

STARTCHAR 0054
ENCODING 84
SWIDTH 900 0
DWIDTH 9 0
BBX 9 18 0 -4
BITMAP
ff00
1800
1800
1800
1800
1800
1800
1800
1800
1800
1800
1800
1800
0000
0000
0000
0000
0000
ENDCHAR

STARTCHAR 0055
ENCODING 85
SWIDTH 900 0
DWIDTH 9 0
BBX 9 18 0 -4
BITMAP
c300
c300
c300
c300
c300
c300
c300
c300
c300
c300
c300
6600
3c00
0000
0000
0000
0000
0000
ENDCHAR

STARTCHAR 0056
ENCODING 86
SWIDTH 900 0
DWIDTH 9 0
BBX 9 18 0 -4
BITMAP
c300
c300
c300
c300
6600
6600
6600
3c00
3c00
3c00
1800
1800
1800
0000
0000
0000
0000
0000
ENDCHAR

STARTCHAR 0057
ENCODING 87
SWIDTH 900 0
DWIDTH 9 0
BBX 9 18 0 -4
BITMAP
c300
c300
c300
c300
c300
c300
db00
db00
db00
ff00
ff00
6600
6600
0000
0000
0000
0000
0000
ENDCHAR

STARTCHAR 0058
ENCODING 88
SWIDTH 900 0
DWIDTH 9 0
BBX 9 18 0 -4
BITMAP
c300
c300
c300
6600
6600
3c00
3c00
1800
3c00
6600
6600
c300
c300
0000
0000
0000
0000
0000
ENDCHAR

STARTCHAR 0059
ENCODING 89
SWIDTH 900 0
DWIDTH 9 0
BBX 9 18 0 -4
BITMAP
c300
c300
6600
6600
3c00
3c00
1800
1800
1800
1800
1800
1800
1800
0000
0000
0000
0000
0000
ENDCHAR

STARTCHAR 005a
ENCODING 90
SWIDTH 900 0
DWIDTH 9 0
BBX 9 18 0 -4
BITMAP
ff00
0100
0300
0600
0c00
1800
3000
6000
c000
c000
8000
8000
ff00
0000
0000
0000
0000
0000
ENDCHAR

STARTCHAR 005b
ENCODING 91
SWIDTH 900 0
DWIDTH 9 0
BBX 9 18 0 -4
BITMAP
3e00
3000
3000
3000
3000
3000
3000
3000
3000
3000
3000
3000
3e00
0000
0000
0000
0000
0000
ENDCHAR

STARTCHAR 005c
ENCODING 92
SWIDTH 900 0
DWIDTH 9 0
BBX 9 18 0 -4
BITMAP
0000
0000
8000
c000
6000
3000
1800
0c00
0600
0300
0000
0000
0000
0000
0000
0000
0000
0000
ENDCHAR

STARTCHAR 005d
ENCODING 93
SWIDTH 900 0
DWIDTH 9 0
BBX 9 18 0 -4
BITMAP
3e00
0600
0600
0600
0600
0600
0600
0600
0600
0600
0600
0600
3e00
0000
0000
0000
0000
0000
ENDCHAR

STARTCHAR 005e
ENCODING 94
SWIDTH 900 0
DWIDTH 9 0
BBX 9 18 0 -4
BITMAP
1800
3c00
6600
c300
0000
0000
0000
0000
0000
0000
0000
0000
0000
0000
0000
0000
0000
0000
ENDCHAR

STARTCHAR 005f
ENCODING 95
SWIDTH 900 0
DWIDTH 9 0
BBX 9 18 0 -4
BITMAP
0000
0000
0000
0000
0000
0000
0000
0000
0000
0000
0000
0000
7f00
0000
0000
0000
0000
0000
ENDCHAR

STARTCHAR 0060
ENCODING 96
SWIDTH 900 0
DWIDTH 9 0
BBX 9 18 0 -4
BITMAP
3000
1800
0c00
0600
0000
0000
0000
0000
0000
0000
0000
0000
0000
0000
0000
0000
0000
0000
ENDCHAR

STARTCHAR 0061
ENCODING 97
SWIDTH 900 0
DWIDTH 9 0
BBX 9 18 0 -4
BITMAP
0000
0000
0000
0000
7e00
0300
0300
0300
7f00
c300
c300
c300
7f00
0000
0000
0000
0000
0000
ENDCHAR

STARTCHAR 0062
ENCODING 98
SWIDTH 900 0
DWIDTH 9 0
BBX 9 18 0 -4
BITMAP
c000
c000
c000
c000
fe00
c300
c300
c300
c300
c300
c300
c300
fe00
0000
0000
0000
0000
0000
ENDCHAR

STARTCHAR 0063
ENCODING 99
SWIDTH 900 0
DWIDTH 9 0
BBX 9 18 0 -4
BITMAP
0000
0000
0000
0000
7e00
c300
c300
c000
c000
c000
c000
c300
7e00
0000
0000
0000
0000
0000
ENDCHAR

STARTCHAR 0064
ENCODING 100
SWIDTH 900 0
DWIDTH 9 0
BBX 9 18 0 -4
BITMAP
0300
0300
0300
0300
7f00
c300
c300
c300
c300
c300
c300
c300
7f00
0000
0000
0000
0000
0000
ENDCHAR

STARTCHAR 0065
ENCODING 101
SWIDTH 900 0
DWIDTH 9 0
BBX 9 18 0 -4
BITMAP
0000
0000
0000
0000
7e00
c300
c300
c300
ff00
c000
c000
c300
7e00
0000
0000
0000
0000
0000
ENDCHAR

STARTCHAR 0066
ENCODING 102
SWIDTH 900 0
DWIDTH 9 0
BBX 9 18 0 -4
BITMAP
0f00
1980
1800
1800
1800
1800
7f00
1800
1800
1800
1800
1800
1800
0000
0000
0000
0000
0000
ENDCHAR

STARTCHAR 0067
ENCODING 103
SWIDTH 900 0
DWIDTH 9 0
BBX 9 18 0 -4
BITMAP
0000
0000
0000
0000
7d00
c600
c600
c600
c600
7c00
4000
3e00
c300
c300
c300
7e00
0000
0000
ENDCHAR

STARTCHAR 0068
ENCODING 104
SWIDTH 900 0
DWIDTH 9 0
BBX 9 18 0 -4
BITMAP
c000
c000
c000
c000
fe00
e300
c300
c300
c300
c300
c300
c300
c300
0000
0000
0000
0000
0000
ENDCHAR

STARTCHAR 0069
ENCODING 105
SWIDTH 900 0
DWIDTH 9 0
BBX 9 18 0 -4
BITMAP
0000
1800
1800
0000
1800
1800
1800
1800
1800
1800
1800
1800
1800
0000
0000
0000
0000
0000
ENDCHAR

STARTCHAR 006a
ENCODING 106
SWIDTH 900 0
DWIDTH 9 0
BBX 9 18 0 -4
BITMAP
0000
0600
0600
0000
0600
0600
0600
0600
0600
0600
0600
0600
0600
c600
6c00
3800
0000
0000
ENDCHAR

STARTCHAR 006b
ENCODING 107
SWIDTH 900 0
DWIDTH 9 0
BBX 9 18 0 -4
BITMAP
c000
c000
c000
c000
c300
c600
cc00
d800
f000
f800
cc00
c600
c300
0000
0000
0000
0000
0000
ENDCHAR

STARTCHAR 006c
ENCODING 108
SWIDTH 900 0
DWIDTH 9 0
BBX 9 18 0 -4
BITMAP
1800
1800
1800
1800
1800
1800
1800
1800
1800
1800
1800
1800
1800
0000
0000
0000
0000
0000
ENDCHAR

STARTCHAR 006d
ENCODING 109
SWIDTH 900 0
DWIDTH 9 0
BBX 9 18 0 -4
BITMAP
0000
0000
0000
0000
fe00
db00
db00
db00
db00
db00
db00
db00
c300
0000
0000
0000
0000
0000
ENDCHAR

STARTCHAR 006e
ENCODING 110
SWIDTH 900 0
DWIDTH 9 0
BBX 9 18 0 -4
BITMAP
0000
0000
0000
0000
fe00
c300
c300
c300
c300
c300
c300
c300
c300
0000
0000
0000
0000
0000
ENDCHAR

STARTCHAR 006f
ENCODING 111
SWIDTH 900 0
DWIDTH 9 0
BBX 9 18 0 -4
BITMAP
0000
0000
0000
0000
7e00
c300
c300
c300
c300
c300
c300
c300
7e00
0000
0000
0000
0000
0000
ENDCHAR

STARTCHAR 0070
ENCODING 112
SWIDTH 900 0
DWIDTH 9 0
BBX 9 18 0 -4
BITMAP
0000
0000
0000
0000
fe00
c300
c300
c300
c300
c300
c300
c300
fe00
c000
c000
c000
0000
0000
ENDCHAR

STARTCHAR 0071
ENCODING 113
SWIDTH 900 0
DWIDTH 9 0
BBX 9 18 0 -4
BITMAP
0000
0000
0000
0000
7f00
c300
c300
c300
c300
c300
c300
c300
7f00
0300
0300
0300
0000
0000
ENDCHAR

STARTCHAR 0072
ENCODING 114
SWIDTH 900 0
DWIDTH 9 0
BBX 9 18 0 -4
BITMAP
0000
0000
0000
0000
fc00
e600
c300
c000
c000
c000
c000
c000
c000
0000
0000
0000
0000
0000
ENDCHAR

STARTCHAR 0073
ENCODING 115
SWIDTH 900 0
DWIDTH 9 0
BBX 9 18 0 -4
BITMAP
0000
0000
0000
0000
7e00
c300
c000
c000
7e00
0300
0300
c300
7e00
0000
0000
0000
0000
0000
ENDCHAR

STARTCHAR 0074
ENCODING 116
SWIDTH 900 0
DWIDTH 9 0
BBX 9 18 0 -4
BITMAP
1800
1800
1800
1800
ff00
1800
1800
1800
1800
1800
1800
1800
0f00
0000
0000
0000
0000
0000
ENDCHAR

STARTCHAR 0075
ENCODING 117
SWIDTH 900 0
DWIDTH 9 0
BBX 9 18 0 -4
BITMAP
0000
0000
0000
0000
c300
c300
c300
c300
c300
c300
c300
c300
7f00
0000
0000
0000
0000
0000
ENDCHAR

STARTCHAR 0076
ENCODING 118
SWIDTH 900 0
DWIDTH 9 0
BBX 9 18 0 -4
BITMAP
0000
0000
0000
0000
c300
c300
c300
6600
6600
3c00
3c00
1800
1800
0000
0000
0000
0000
0000
ENDCHAR

STARTCHAR 0077
ENCODING 119
SWIDTH 900 0
DWIDTH 9 0
BBX 9 18 0 -4
BITMAP
0000
0000
0000
0000
c300
c300
db00
db00
db00
db00
ff00
6600
6600
0000
0000
0000
0000
0000
ENDCHAR

STARTCHAR 0078
ENCODING 120
SWIDTH 900 0
DWIDTH 9 0
BBX 9 18 0 -4
BITMAP
0000
0000
0000
0000
c300
c300
6600
3c00
1800
3c00
6600
c300
c300
0000
0000
0000
0000
0000
ENDCHAR

STARTCHAR 0079
ENCODING 121
SWIDTH 900 0
DWIDTH 9 0
BBX 9 18 0 -4
BITMAP
0000
0000
0000
0000
c300
c300
c300
c300
c300
c300
c300
7f00
0300
0600
0600
7c00
0000
0000
ENDCHAR

STARTCHAR 007a
ENCODING 122
SWIDTH 900 0
DWIDTH 9 0
BBX 9 18 0 -4
BITMAP
0000
0000
0000
0000
ff00
0300
0600
0c00
1800
3000
6000
c000
ff00
0000
0000
0000
0000
0000
ENDCHAR

STARTCHAR 007b
ENCODING 123
SWIDTH 900 0
DWIDTH 9 0
BBX 9 18 0 -4
BITMAP
0000
1e00
3000
3000
3000
3000
6000
3000
3000
3000
3000
3000
1e00
0000
0000
0000
0000
0000
ENDCHAR

STARTCHAR 007c
ENCODING 124
SWIDTH 900 0
DWIDTH 9 0
BBX 9 18 0 -4
BITMAP
0000
1800
1800
1800
1800
1800
1800
1800
1800
1800
1800
1800
1800
0000
0000
0000
0000
0000
ENDCHAR

STARTCHAR 007d
ENCODING 125
SWIDTH 900 0
DWIDTH 9 0
BBX 9 18 0 -4
BITMAP
0000
7800
0c00
0c00
0c00
0c00
0600
0c00
0c00
0c00
0c00
0c00
7800
0000
0000
0000
0000
0000
ENDCHAR

STARTCHAR 007e
ENCODING 126
SWIDTH 900 0
DWIDTH 9 0
BBX 9 18 0 -4
BITMAP
0000
7000
db00
0e00
0000
0000
0000
0000
0000
0000
0000
0000
0000
0000
0000
0000
0000
0000
ENDCHAR

STARTCHAR 007f
ENCODING 127
SWIDTH 900 0
DWIDTH 9 0
BBX 9 18 0 -4
BITMAP
0000
0000
0000
0000
0000
0000
0000
0000
0000
0000
0000
0000
0000
0000
0000
0000
0000
0000
ENDCHAR

STARTCHAR 00d7
ENCODING 215
SWIDTH 900 0
DWIDTH 9 0
BBX 9 18 0 -4
BITMAP
c300
c300
c300
6600
6600
3c00
3c00
1800
3c00
6600
6600
c300
c300
0000
0000
0000
0000
0000
ENDCHAR

ENDFONT
