STARTFONT 2.1
FONT -Hiro-Maru-Medium-R-Normal--18-170-75-75-C-90-ISO8859-1
SIZE 9 75 75
FONTBOUNDINGBOX 9 18 0 -5
STARTPROPERTIES 3
  COPYRIGHT "Copyright (C) 2010-2021 Hiroyuki Ohsaki (http://lsnl.jp/~ohsaki/).  License: GPLv2+: GNU GPL version 2 or later <http://gnu.org/licenses/gpl.html> with the GNU Font Embedding Exception.  URL: https://github.com/h-ohsaki/fonts."
  FONT_ASCENT 15
  FONT_DESCENT 3
ENDPROPERTIES

CHARS 129

STARTCHAR 0000
ENCODING 0
SWIDTH 900 0
DWIDTH 9 0
BBX 9 18 0 -4
BITMAP
0000
0000
0000
0000
0000
0000
0000
0000
0000
0000
0000
0000
0000
0000
0000
0000
0000
0000
ENDCHAR

STARTCHAR 0001
ENCODING 1
SWIDTH 900 0
DWIDTH 9 0
BBX 9 18 0 -4
BITMAP
0000
0000
0000
0000
0000
0000
0000
0000
0000
0000
0000
0000
0000
0000
0000
0000
0000
0000
ENDCHAR

STARTCHAR 0002
ENCODING 2
SWIDTH 900 0
DWIDTH 9 0
BBX 9 18 0 -4
BITMAP
0000
0000
0000
0000
0000
0000
0000
0000
0000
0000
0000
0000
0000
0000
0000
0000
0000
0000
ENDCHAR

STARTCHAR 0003
ENCODING 3
SWIDTH 900 0
DWIDTH 9 0
BBX 9 18 0 -4
BITMAP
0000
0000
0000
0000
0000
0000
0000
0000
0000
0000
0000
0000
0000
0000
0000
0000
0000
0000
ENDCHAR

STARTCHAR 0004
ENCODING 4
SWIDTH 900 0
DWIDTH 9 0
BBX 9 18 0 -4
BITMAP
0000
0000
0000
0000
0000
0000
0000
0000
0000
0000
0000
0000
0000
0000
0000
0000
0000
0000
ENDCHAR

STARTCHAR 0005
ENCODING 5
SWIDTH 900 0
DWIDTH 9 0
BBX 9 18 0 -4
BITMAP
0000
0000
0000
0000
0000
0000
0000
0000
0000
0000
0000
0000
0000
0000
0000
0000
0000
0000
ENDCHAR

STARTCHAR 0006
ENCODING 6
SWIDTH 900 0
DWIDTH 9 0
BBX 9 18 0 -4
BITMAP
0000
0000
0000
0000
0000
0000
0000
0000
0000
0000
0000
0000
0000
0000
0000
0000
0000
0000
ENDCHAR

STARTCHAR 0007
ENCODING 7
SWIDTH 900 0
DWIDTH 9 0
BBX 9 18 0 -4
BITMAP
0000
0000
0000
0000
0000
0000
0000
0000
0000
0000
0000
0000
0000
0000
0000
0000
0000
0000
ENDCHAR

STARTCHAR 0008
ENCODING 8
SWIDTH 900 0
DWIDTH 9 0
BBX 9 18 0 -4
BITMAP
0000
0000
0000
0000
0000
0000
0000
0000
0000
0000
0000
0000
0000
0000
0000
0000
0000
0000
ENDCHAR

STARTCHAR 0009
ENCODING 9
SWIDTH 900 0
DWIDTH 9 0
BBX 9 18 0 -4
BITMAP
0000
0000
0000
0000
0000
0000
0000
0000
0000
0000
0000
0000
0000
0000
0000
0000
0000
0000
ENDCHAR

STARTCHAR 000a
ENCODING 10
SWIDTH 900 0
DWIDTH 9 0
BBX 9 18 0 -4
BITMAP
0000
0000
0000
0000
0000
0000
0000
0000
0000
0000
0000
0000
0000
0000
0000
0000
0000
0000
ENDCHAR

STARTCHAR 000b
ENCODING 11
SWIDTH 900 0
DWIDTH 9 0
BBX 9 18 0 -4
BITMAP
0000
0000
0000
0000
0000
0000
0000
0000
0000
0000
0000
0000
0000
0000
0000
0000
0000
0000
ENDCHAR

STARTCHAR 000c
ENCODING 12
SWIDTH 900 0
DWIDTH 9 0
BBX 9 18 0 -4
BITMAP
0000
0000
0000
0000
0000
0000
0000
0000
0000
0000
0000
0000
0000
0000
0000
0000
0000
0000
ENDCHAR

STARTCHAR 000d
ENCODING 13
SWIDTH 900 0
DWIDTH 9 0
BBX 9 18 0 -4
BITMAP
0000
0000
0000
0000
0000
0000
0000
0000
0000
0000
0000
0000
0000
0000
0000
0000
0000
0000
ENDCHAR

STARTCHAR 000e
ENCODING 14
SWIDTH 900 0
DWIDTH 9 0
BBX 9 18 0 -4
BITMAP
0000
0000
0000
0000
0000
0000
0000
0000
0000
0000
0000
0000
0000
0000
0000
0000
0000
0000
ENDCHAR

STARTCHAR 000f
ENCODING 15
SWIDTH 900 0
DWIDTH 9 0
BBX 9 18 0 -4
BITMAP
0000
0000
0000
0000
0000
0000
0000
0000
0000
0000
0000
0000
0000
0000
0000
0000
0000
0000
ENDCHAR

STARTCHAR 0010
ENCODING 16
SWIDTH 900 0
DWIDTH 9 0
BBX 9 18 0 -4
BITMAP
0000
0000
0000
0000
0000
0000
0000
0000
0000
0000
0000
0000
0000
0000
0000
0000
0000
0000
ENDCHAR

STARTCHAR 0011
ENCODING 17
SWIDTH 900 0
DWIDTH 9 0
BBX 9 18 0 -4
BITMAP
0000
0000
0000
0000
0000
0000
0000
0000
0000
0000
0000
0000
0000
0000
0000
0000
0000
0000
ENDCHAR

STARTCHAR 0012
ENCODING 18
SWIDTH 900 0
DWIDTH 9 0
BBX 9 18 0 -4
BITMAP
0000
0000
0000
0000
0000
0000
0000
0000
0000
0000
0000
0000
0000
0000
0000
0000
0000
0000
ENDCHAR

STARTCHAR 0013
ENCODING 19
SWIDTH 900 0
DWIDTH 9 0
BBX 9 18 0 -4
BITMAP
0000
0000
0000
0000
0000
0000
0000
0000
0000
0000
0000
0000
0000
0000
0000
0000
0000
0000
ENDCHAR

STARTCHAR 0014
ENCODING 20
SWIDTH 900 0
DWIDTH 9 0
BBX 9 18 0 -4
BITMAP
0000
0000
0000
0000
0000
0000
0000
0000
0000
0000
0000
0000
0000
0000
0000
0000
0000
0000
ENDCHAR

STARTCHAR 0015
ENCODING 21
SWIDTH 900 0
DWIDTH 9 0
BBX 9 18 0 -4
BITMAP
0000
0000
0000
0000
0000
0000
0000
0000
0000
0000
0000
0000
0000
0000
0000
0000
0000
0000
ENDCHAR

STARTCHAR 0016
ENCODING 22
SWIDTH 900 0
DWIDTH 9 0
BBX 9 18 0 -4
BITMAP
0000
0000
0000
0000
0000
0000
0000
0000
0000
0000
0000
0000
0000
0000
0000
0000
0000
0000
ENDCHAR

STARTCHAR 0017
ENCODING 23
SWIDTH 900 0
DWIDTH 9 0
BBX 9 18 0 -4
BITMAP
0000
0000
0000
0000
0000
0000
0000
0000
0000
0000
0000
0000
0000
0000
0000
0000
0000
0000
ENDCHAR

STARTCHAR 0018
ENCODING 24
SWIDTH 900 0
DWIDTH 9 0
BBX 9 18 0 -4
BITMAP
0000
0000
0000
0000
0000
0000
0000
0000
0000
0000
0000
0000
0000
0000
0000
0000
0000
0000
ENDCHAR

STARTCHAR 0019
ENCODING 25
SWIDTH 900 0
DWIDTH 9 0
BBX 9 18 0 -4
BITMAP
0000
0000
0000
0000
0000
0000
0000
0000
0000
0000
0000
0000
0000
0000
0000
0000
0000
0000
ENDCHAR

STARTCHAR 001a
ENCODING 26
SWIDTH 900 0
DWIDTH 9 0
BBX 9 18 0 -4
BITMAP
0000
0000
0000
0000
0000
0000
0000
0000
0000
0000
0000
0000
0000
0000
0000
0000
0000
0000
ENDCHAR

STARTCHAR 001b
ENCODING 27
SWIDTH 900 0
DWIDTH 9 0
BBX 9 18 0 -4
BITMAP
0000
0000
0000
0000
0000
0000
0000
0000
0000
0000
0000
0000
0000
0000
0000
0000
0000
0000
ENDCHAR

STARTCHAR 001c
ENCODING 28
SWIDTH 900 0
DWIDTH 9 0
BBX 9 18 0 -4
BITMAP
0000
0000
0000
0000
0000
0000
0000
0000
0000
0000
0000
0000
0000
0000
0000
0000
0000
0000
ENDCHAR

STARTCHAR 001d
ENCODING 29
SWIDTH 900 0
DWIDTH 9 0
BBX 9 18 0 -4
BITMAP
0000
0000
0000
0000
0000
0000
0000
0000
0000
0000
0000
0000
0000
0000
0000
0000
0000
0000
ENDCHAR

STARTCHAR 001e
ENCODING 30
SWIDTH 900 0
DWIDTH 9 0
BBX 9 18 0 -4
BITMAP
0000
0000
0000
0000
0000
0000
0000
0000
0000
0000
0000
0000
0000
0000
0000
0000
0000
0000
ENDCHAR

STARTCHAR 001f
ENCODING 31
SWIDTH 900 0
DWIDTH 9 0
BBX 9 18 0 -4
BITMAP
0000
0000
0000
0000
0000
0000
0000
0000
0000
0000
0000
0000
0000
0000
0000
0000
0000
0000
ENDCHAR

STARTCHAR 0020
ENCODING 32
SWIDTH 900 0
DWIDTH 9 0
BBX 9 18 0 -4
BITMAP
0000
0000
0000
0000
0000
0000
0000
0000
0000
0000
0000
0000
0000
0000
0000
0000
0000
0000
ENDCHAR

STARTCHAR 0021
ENCODING 33
SWIDTH 900 0
DWIDTH 9 0
BBX 9 18 0 -4
BITMAP
0000
0800
0800
0800
0800
0800
0800
0800
0800
0000
0800
0800
0000
0000
0000
0000
0000
0000
ENDCHAR

STARTCHAR 0022
ENCODING 34
SWIDTH 900 0
DWIDTH 9 0
BBX 9 18 0 -4
BITMAP
0000
2400
2400
2400
0000
0000
0000
0000
0000
0000
0000
0000
0000
0000
0000
0000
0000
0000
ENDCHAR

STARTCHAR 0023
ENCODING 35
SWIDTH 900 0
DWIDTH 9 0
BBX 9 18 0 -4
BITMAP
0000
2400
2400
2400
7e00
2400
2400
2400
7e00
2400
2400
2400
0000
0000
0000
0000
0000
0000
ENDCHAR

STARTCHAR 0024
ENCODING 36
SWIDTH 900 0
DWIDTH 9 0
BBX 9 18 0 -4
BITMAP
0800
1c00
2a00
4900
4800
2800
1c00
0a00
0900
4900
2a00
1c00
0800
0000
0000
0000
0000
0000
ENDCHAR

STARTCHAR 0025
ENCODING 37
SWIDTH 900 0
DWIDTH 9 0
BBX 9 18 0 -4
BITMAP
0100
6100
9200
9400
9400
6800
1000
1600
2900
4900
4900
8600
8000
0000
0000
0000
0000
0000
ENDCHAR

STARTCHAR 0026
ENCODING 38
SWIDTH 900 0
DWIDTH 9 0
BBX 9 18 0 -4
BITMAP
1800
2400
4200
4200
4200
2400
3800
5000
8900
8500
8200
4600
3900
0000
0000
0000
0000
0000
ENDCHAR

STARTCHAR 0027
ENCODING 39
SWIDTH 900 0
DWIDTH 9 0
BBX 9 18 0 -4
BITMAP
0800
0800
0800
0000
0000
0000
0000
0000
0000
0000
0000
0000
0000
0000
0000
0000
0000
0000
ENDCHAR

STARTCHAR 0028
ENCODING 40
SWIDTH 900 0
DWIDTH 9 0
BBX 9 18 0 -4
BITMAP
0200
0400
0800
1000
1000
2000
2000
2000
1000
1000
0800
0400
0200
0000
0000
0000
0000
0000
ENDCHAR

STARTCHAR 0029
ENCODING 41
SWIDTH 900 0
DWIDTH 9 0
BBX 9 18 0 -4
BITMAP
4000
2000
1000
0800
0800
0400
0400
0400
0800
0800
1000
2000
4000
0000
0000
0000
0000
0000
ENDCHAR

STARTCHAR 002a
ENCODING 42
SWIDTH 900 0
DWIDTH 9 0
BBX 9 18 0 -4
BITMAP
0000
0000
0800
0800
2a00
1c00
0800
7f00
0800
1c00
2a00
0800
0000
0000
0000
0000
0000
0000
ENDCHAR

STARTCHAR 002b
ENCODING 43
SWIDTH 900 0
DWIDTH 9 0
BBX 9 18 0 -4
BITMAP
0000
0000
0800
0800
0800
0800
7f00
0800
0800
0800
0800
0000
0000
0000
0000
0000
0000
0000
ENDCHAR

STARTCHAR 002c
ENCODING 44
SWIDTH 900 0
DWIDTH 9 0
BBX 9 18 0 -4
BITMAP
0000
0000
0000
0000
0000
0000
0000
0000
0000
0000
0000
0c00
0400
0400
0800
0000
0000
0000
ENDCHAR

STARTCHAR 002d
ENCODING 45
SWIDTH 900 0
DWIDTH 9 0
BBX 9 18 0 -4
BITMAP
0000
0000
0000
0000
0000
0000
0000
7f00
0000
0000
0000
0000
0000
0000
0000
0000
0000
0000
ENDCHAR

STARTCHAR 002e
ENCODING 46
SWIDTH 900 0
DWIDTH 9 0
BBX 9 18 0 -4
BITMAP
0000
0000
0000
0000
0000
0000
0000
0000
0000
0000
0800
1c00
0800
0000
0000
0000
0000
0000
ENDCHAR

STARTCHAR 002f
ENCODING 47
SWIDTH 900 0
DWIDTH 9 0
BBX 9 18 0 -4
BITMAP
0000
0000
0000
0100
0200
0400
0800
1000
2000
4000
8000
0000
0000
0000
0000
0000
0000
0000
ENDCHAR

STARTCHAR 0030
ENCODING 48
SWIDTH 900 0
DWIDTH 9 0
BBX 9 18 0 -4
BITMAP
3c00
4200
8300
8500
8500
8900
8900
9100
9100
a100
a100
4200
3c00
0000
0000
0000
0000
0000
ENDCHAR

STARTCHAR 0031
ENCODING 49
SWIDTH 900 0
DWIDTH 9 0
BBX 9 18 0 -4
BITMAP
0800
1800
2800
4800
0800
0800
0800
0800
0800
0800
0800
0800
7f00
0000
0000
0000
0000
0000
ENDCHAR

STARTCHAR 0032
ENCODING 50
SWIDTH 900 0
DWIDTH 9 0
BBX 9 18 0 -4
BITMAP
7c00
8200
0100
0100
0100
0200
3c00
4000
8000
8000
8000
8000
ff00
0000
0000
0000
0000
0000
ENDCHAR

STARTCHAR 0033
ENCODING 51
SWIDTH 900 0
DWIDTH 9 0
BBX 9 18 0 -4
BITMAP
fc00
0200
0100
0100
0100
0200
7c00
0200
0100
0100
0100
0200
fc00
0000
0000
0000
0000
0000
ENDCHAR

STARTCHAR 0034
ENCODING 52
SWIDTH 900 0
DWIDTH 9 0
BBX 9 18 0 -4
BITMAP
0600
0a00
0a00
1200
1200
2200
2200
4200
4200
8200
ff00
0200
0200
0000
0000
0000
0000
0000
ENDCHAR

STARTCHAR 0035
ENCODING 53
SWIDTH 900 0
DWIDTH 9 0
BBX 9 18 0 -4
BITMAP
ff00
8000
8000
8000
8000
8000
fc00
0200
0100
0100
0100
0200
fc00
0000
0000
0000
0000
0000
ENDCHAR

STARTCHAR 0036
ENCODING 54
SWIDTH 900 0
DWIDTH 9 0
BBX 9 18 0 -4
BITMAP
3c00
4200
8100
8000
8000
8000
bc00
c200
8100
8100
8100
4200
3c00
0000
0000
0000
0000
0000
ENDCHAR

STARTCHAR 0037
ENCODING 55
SWIDTH 900 0
DWIDTH 9 0
BBX 9 18 0 -4
BITMAP
ff00
0100
0100
0100
0200
0200
0400
0800
0800
1000
1000
1000
1000
0000
0000
0000
0000
0000
ENDCHAR

STARTCHAR 0038
ENCODING 56
SWIDTH 900 0
DWIDTH 9 0
BBX 9 18 0 -4
BITMAP
3c00
4200
8100
8100
8100
4200
3c00
4200
8100
8100
8100
4200
3c00
0000
0000
0000
0000
0000
ENDCHAR

STARTCHAR 0039
ENCODING 57
SWIDTH 900 0
DWIDTH 9 0
BBX 9 18 0 -4
BITMAP
3c00
4200
8100
8100
8100
4100
3f00
0100
0100
0100
8100
4200
3c00
0000
0000
0000
0000
0000
ENDCHAR

STARTCHAR 003a
ENCODING 58
SWIDTH 900 0
DWIDTH 9 0
BBX 9 18 0 -4
BITMAP
0000
0000
0000
0800
1c00
0800
0000
0800
1c00
0800
0000
0000
0000
0000
0000
0000
0000
0000
ENDCHAR

STARTCHAR 003b
ENCODING 59
SWIDTH 900 0
DWIDTH 9 0
BBX 9 18 0 -4
BITMAP
0000
0000
0000
0800
1c00
0800
0000
0000
1800
0800
0800
1000
0000
0000
0000
0000
0000
0000
ENDCHAR

STARTCHAR 003c
ENCODING 60
SWIDTH 900 0
DWIDTH 9 0
BBX 9 18 0 -4
BITMAP
0000
0200
0400
0800
1000
2000
4000
2000
1000
0800
0400
0200
0000
0000
0000
0000
0000
0000
ENDCHAR

STARTCHAR 003d
ENCODING 61
SWIDTH 900 0
DWIDTH 9 0
BBX 9 18 0 -4
BITMAP
0000
0000
0000
0000
0000
7f00
0000
0000
7f00
0000
0000
0000
0000
0000
0000
0000
0000
0000
ENDCHAR

STARTCHAR 003e
ENCODING 62
SWIDTH 900 0
DWIDTH 9 0
BBX 9 18 0 -4
BITMAP
0000
4000
2000
1000
0800
0400
0200
0400
0800
1000
2000
4000
0000
0000
0000
0000
0000
0000
ENDCHAR

STARTCHAR 003f
ENCODING 63
SWIDTH 900 0
DWIDTH 9 0
BBX 9 18 0 -4
BITMAP
3c00
4200
8100
0100
0100
0200
0400
0800
0800
0000
0800
0800
0000
0000
0000
0000
0000
0000
ENDCHAR

STARTCHAR 0040
ENCODING 64
SWIDTH 900 0
DWIDTH 9 0
BBX 9 18 0 -4
BITMAP
3c00
4200
8100
9900
a500
a500
a500
a500
a500
9a00
8000
4000
3e00
0000
0000
0000
0000
0000
ENDCHAR

STARTCHAR 0041
ENCODING 65
SWIDTH 900 0
DWIDTH 9 0
BBX 9 18 0 -4
BITMAP
1800
2400
2400
4200
4200
8100
8100
ff00
8100
8100
8100
8100
8100
0000
0000
0000
0000
0000
ENDCHAR

STARTCHAR 0042
ENCODING 66
SWIDTH 900 0
DWIDTH 9 0
BBX 9 18 0 -4
BITMAP
fc00
8200
8100
8100
8200
fc00
8200
8100
8100
8100
8100
8200
fc00
0000
0000
0000
0000
0000
ENDCHAR

STARTCHAR 0043
ENCODING 67
SWIDTH 900 0
DWIDTH 9 0
BBX 9 18 0 -4
BITMAP
3c00
4200
8100
8000
8000
8000
8000
8000
8000
8000
8100
4200
3c00
0000
0000
0000
0000
0000
ENDCHAR

STARTCHAR 0044
ENCODING 68
SWIDTH 900 0
DWIDTH 9 0
BBX 9 18 0 -4
BITMAP
f800
8400
8200
8100
8100
8100
8100
8100
8100
8100
8200
8400
f800
0000
0000
0000
0000
0000
ENDCHAR

STARTCHAR 0045
ENCODING 69
SWIDTH 900 0
DWIDTH 9 0
BBX 9 18 0 -4
BITMAP
ff00
8000
8000
8000
8000
8000
fe00
8000
8000
8000
8000
8000
ff00
0000
0000
0000
0000
0000
ENDCHAR

STARTCHAR 0046
ENCODING 70
SWIDTH 900 0
DWIDTH 9 0
BBX 9 18 0 -4
BITMAP
ff00
8000
8000
8000
8000
8000
fe00
8000
8000
8000
8000
8000
8000
0000
0000
0000
0000
0000
ENDCHAR

STARTCHAR 0047
ENCODING 71
SWIDTH 900 0
DWIDTH 9 0
BBX 9 18 0 -4
BITMAP
3c00
4200
8100
8000
8000
8000
9f00
8100
8100
8100
8300
4500
3900
0000
0000
0000
0000
0000
ENDCHAR

STARTCHAR 0048
ENCODING 72
SWIDTH 900 0
DWIDTH 9 0
BBX 9 18 0 -4
BITMAP
8100
8100
8100
8100
8100
8100
ff00
8100
8100
8100
8100
8100
8100
0000
0000
0000
0000
0000
ENDCHAR

STARTCHAR 0049
ENCODING 73
SWIDTH 900 0
DWIDTH 9 0
BBX 9 18 0 -4
BITMAP
1c00
0800
0800
0800
0800
0800
0800
0800
0800
0800
0800
0800
1c00
0000
0000
0000
0000
0000
ENDCHAR

STARTCHAR 004a
ENCODING 74
SWIDTH 900 0
DWIDTH 9 0
BBX 9 18 0 -4
BITMAP
0400
0400
0400
0400
0400
0400
0400
0400
0400
0400
0400
8400
7800
0000
0000
0000
0000
0000
ENDCHAR

STARTCHAR 004b
ENCODING 75
SWIDTH 900 0
DWIDTH 9 0
BBX 9 18 0 -4
BITMAP
8100
8200
8400
8800
9000
a000
e000
9000
8800
8400
8200
8100
8100
0000
0000
0000
0000
0000
ENDCHAR

STARTCHAR 004c
ENCODING 76
SWIDTH 900 0
DWIDTH 9 0
BBX 9 18 0 -4
BITMAP
8000
8000
8000
8000
8000
8000
8000
8000
8000
8000
8000
8000
ff00
0000
0000
0000
0000
0000
ENDCHAR

STARTCHAR 004d
ENCODING 77
SWIDTH 900 0
DWIDTH 9 0
BBX 9 18 0 -4
BITMAP
4100
4100
6300
6300
5500
4900
4900
4100
4100
4100
4100
4100
4100
0000
0000
0000
0000
0000
ENDCHAR

STARTCHAR 004e
ENCODING 78
SWIDTH 900 0
DWIDTH 9 0
BBX 9 18 0 -4
BITMAP
8100
8100
c100
a100
a100
9100
8900
8500
8500
8300
8100
8100
8100
0000
0000
0000
0000
0000
ENDCHAR

STARTCHAR 004f
ENCODING 79
SWIDTH 900 0
DWIDTH 9 0
BBX 9 18 0 -4
BITMAP
3c00
4200
8100
8100
8100
8100
8100
8100
8100
8100
8100
4200
3c00
0000
0000
0000
0000
0000
ENDCHAR

STARTCHAR 0050
ENCODING 80
SWIDTH 900 0
DWIDTH 9 0
BBX 9 18 0 -4
BITMAP
fc00
8200
8100
8100
8100
8200
fc00
8000
8000
8000
8000
8000
8000
0000
0000
0000
0000
0000
ENDCHAR

STARTCHAR 0051
ENCODING 81
SWIDTH 900 0
DWIDTH 9 0
BBX 9 18 0 -4
BITMAP
3c00
4200
8100
8100
8100
8100
8100
8100
b100
c900
8a00
4400
3b00
0000
0000
0000
0000
0000
ENDCHAR

STARTCHAR 0052
ENCODING 82
SWIDTH 900 0
DWIDTH 9 0
BBX 9 18 0 -4
BITMAP
fc00
8200
8100
8100
8100
8200
fc00
8800
8400
8200
8200
8100
8100
0000
0000
0000
0000
0000
ENDCHAR

STARTCHAR 0053
ENCODING 83
SWIDTH 900 0
DWIDTH 9 0
BBX 9 18 0 -4
BITMAP
3c00
4200
8100
8100
8000
4000
3c00
0200
0100
0100
8100
4200
3c00
0000
0000
0000
0000
0000
ENDCHAR

STARTCHAR 0054
ENCODING 84
SWIDTH 900 0
DWIDTH 9 0
BBX 9 18 0 -4
BITMAP
7f00
0800
0800
0800
0800
0800
0800
0800
0800
0800
0800
0800
0800
0000
0000
0000
0000
0000
ENDCHAR

STARTCHAR 0055
ENCODING 85
SWIDTH 900 0
DWIDTH 9 0
BBX 9 18 0 -4
BITMAP
8100
8100
8100
8100
8100
8100
8100
8100
8100
8100
8100
4200
3c00
0000
0000
0000
0000
0000
ENDCHAR

STARTCHAR 0056
ENCODING 86
SWIDTH 900 0
DWIDTH 9 0
BBX 9 18 0 -4
BITMAP
8100
8100
8100
8100
4200
4200
4200
2400
2400
2400
1800
1800
1800
0000
0000
0000
0000
0000
ENDCHAR

STARTCHAR 0057
ENCODING 87
SWIDTH 900 0
DWIDTH 9 0
BBX 9 18 0 -4
BITMAP
4100
4100
4100
4100
4100
4100
4900
4900
4900
5500
5500
2200
2200
0000
0000
0000
0000
0000
ENDCHAR

STARTCHAR 0058
ENCODING 88
SWIDTH 900 0
DWIDTH 9 0
BBX 9 18 0 -4
BITMAP
4100
4100
4100
2200
2200
1400
1400
0800
1400
2200
2200
4100
4100
0000
0000
0000
0000
0000
ENDCHAR

STARTCHAR 0059
ENCODING 89
SWIDTH 900 0
DWIDTH 9 0
BBX 9 18 0 -4
BITMAP
4100
4100
2200
2200
1400
1400
0800
0800
0800
0800
0800
0800
0800
0000
0000
0000
0000
0000
ENDCHAR

STARTCHAR 005a
ENCODING 90
SWIDTH 900 0
DWIDTH 9 0
BBX 9 18 0 -4
BITMAP
ff00
0100
0200
0200
0400
0800
1000
2000
4000
4000
8000
8000
ff00
0000
0000
0000
0000
0000
ENDCHAR

STARTCHAR 005b
ENCODING 91
SWIDTH 900 0
DWIDTH 9 0
BBX 9 18 0 -4
BITMAP
3c00
2000
2000
2000
2000
2000
2000
2000
2000
2000
2000
2000
3c00
0000
0000
0000
0000
0000
ENDCHAR

STARTCHAR 005c
ENCODING 92
SWIDTH 900 0
DWIDTH 9 0
BBX 9 18 0 -4
BITMAP
0000
0000
8000
4000
2000
1000
0800
0400
0200
0100
0000
0000
0000
0000
0000
0000
0000
0000
ENDCHAR

STARTCHAR 005d
ENCODING 93
SWIDTH 900 0
DWIDTH 9 0
BBX 9 18 0 -4
BITMAP
3c00
0400
0400
0400
0400
0400
0400
0400
0400
0400
0400
0400
3c00
0000
0000
0000
0000
0000
ENDCHAR

STARTCHAR 005e
ENCODING 94
SWIDTH 900 0
DWIDTH 9 0
BBX 9 18 0 -4
BITMAP
0800
1400
2200
4100
0000
0000
0000
0000
0000
0000
0000
0000
0000
0000
0000
0000
0000
0000
ENDCHAR

STARTCHAR 005f
ENCODING 95
SWIDTH 900 0
DWIDTH 9 0
BBX 9 18 0 -4
BITMAP
0000
0000
0000
0000
0000
0000
0000
0000
0000
0000
0000
0000
7e00
0000
0000
0000
0000
0000
ENDCHAR

STARTCHAR 0060
ENCODING 96
SWIDTH 900 0
DWIDTH 9 0
BBX 9 18 0 -4
BITMAP
1000
0800
0400
0200
0000
0000
0000
0000
0000
0000
0000
0000
0000
0000
0000
0000
0000
0000
ENDCHAR

STARTCHAR 0061
ENCODING 97
SWIDTH 900 0
DWIDTH 9 0
BBX 9 18 0 -4
BITMAP
0000
0000
0000
0000
7e00
0100
0100
0100
7f00
8100
8100
8100
7f00
0000
0000
0000
0000
0000
ENDCHAR

STARTCHAR 0062
ENCODING 98
SWIDTH 900 0
DWIDTH 9 0
BBX 9 18 0 -4
BITMAP
8000
8000
8000
8000
fe00
8100
8100
8100
8100
8100
8100
8100
fe00
0000
0000
0000
0000
0000
ENDCHAR

STARTCHAR 0063
ENCODING 99
SWIDTH 900 0
DWIDTH 9 0
BBX 9 18 0 -4
BITMAP
0000
0000
0000
0000
7e00
8100
8100
8000
8000
8000
8000
8100
7e00
0000
0000
0000
0000
0000
ENDCHAR

STARTCHAR 0064
ENCODING 100
SWIDTH 900 0
DWIDTH 9 0
BBX 9 18 0 -4
BITMAP
0100
0100
0100
0100
7f00
8100
8100
8100
8100
8100
8100
8100
7f00
0000
0000
0000
0000
0000
ENDCHAR

STARTCHAR 0065
ENCODING 101
SWIDTH 900 0
DWIDTH 9 0
BBX 9 18 0 -4
BITMAP
0000
0000
0000
0000
7e00
8100
8100
8100
ff00
8000
8000
8100
7e00
0000
0000
0000
0000
0000
ENDCHAR

STARTCHAR 0066
ENCODING 102
SWIDTH 900 0
DWIDTH 9 0
BBX 9 18 0 -4
BITMAP
0e00
1100
1000
1000
1000
1000
7e00
1000
1000
1000
1000
1000
1000
0000
0000
0000
0000
0000
ENDCHAR

STARTCHAR 0067
ENCODING 103
SWIDTH 900 0
DWIDTH 9 0
BBX 9 18 0 -4
BITMAP
0000
0000
0000
0000
7d00
8200
8200
8200
8200
7c00
4000
3e00
8100
8100
8100
7e00
0000
0000
ENDCHAR

STARTCHAR 0068
ENCODING 104
SWIDTH 900 0
DWIDTH 9 0
BBX 9 18 0 -4
BITMAP
8000
8000
8000
8000
be00
c100
8100
8100
8100
8100
8100
8100
8100
0000
0000
0000
0000
0000
ENDCHAR

STARTCHAR 0069
ENCODING 105
SWIDTH 900 0
DWIDTH 9 0
BBX 9 18 0 -4
BITMAP
0000
0800
0800
0000
0800
0800
0800
0800
0800
0800
0800
0800
0800
0000
0000
0000
0000
0000
ENDCHAR

STARTCHAR 006a
ENCODING 106
SWIDTH 900 0
DWIDTH 9 0
BBX 9 18 0 -4
BITMAP
0000
0200
0200
0000
0200
0200
0200
0200
0200
0200
0200
0200
0200
8200
4400
3800
0000
0000
ENDCHAR

STARTCHAR 006b
ENCODING 107
SWIDTH 900 0
DWIDTH 9 0
BBX 9 18 0 -4
BITMAP
8000
8000
8000
8000
8200
8400
8800
9000
a000
d000
8800
8400
8200
0000
0000
0000
0000
0000
ENDCHAR

STARTCHAR 006c
ENCODING 108
SWIDTH 900 0
DWIDTH 9 0
BBX 9 18 0 -4
BITMAP
0800
0800
0800
0800
0800
0800
0800
0800
0800
0800
0800
0800
0800
0000
0000
0000
0000
0000
ENDCHAR

STARTCHAR 006d
ENCODING 109
SWIDTH 900 0
DWIDTH 9 0
BBX 9 18 0 -4
BITMAP
0000
0000
0000
0000
7600
4900
4900
4900
4900
4900
4900
4900
4100
0000
0000
0000
0000
0000
ENDCHAR

STARTCHAR 006e
ENCODING 110
SWIDTH 900 0
DWIDTH 9 0
BBX 9 18 0 -4
BITMAP
0000
0000
0000
0000
be00
c100
8100
8100
8100
8100
8100
8100
8100
0000
0000
0000
0000
0000
ENDCHAR

STARTCHAR 006f
ENCODING 111
SWIDTH 900 0
DWIDTH 9 0
BBX 9 18 0 -4
BITMAP
0000
0000
0000
0000
7e00
8100
8100
8100
8100
8100
8100
8100
7e00
0000
0000
0000
0000
0000
ENDCHAR

STARTCHAR 0070
ENCODING 112
SWIDTH 900 0
DWIDTH 9 0
BBX 9 18 0 -4
BITMAP
0000
0000
0000
0000
fe00
8100
8100
8100
8100
8100
8100
8100
fe00
8000
8000
8000
0000
0000
ENDCHAR

STARTCHAR 0071
ENCODING 113
SWIDTH 900 0
DWIDTH 9 0
BBX 9 18 0 -4
BITMAP
0000
0000
0000
0000
7f00
8100
8100
8100
8100
8100
8100
8100
7f00
0100
0100
0100
0000
0000
ENDCHAR

STARTCHAR 0072
ENCODING 114
SWIDTH 900 0
DWIDTH 9 0
BBX 9 18 0 -4
BITMAP
0000
0000
0000
0000
bc00
c200
8100
8000
8000
8000
8000
8000
8000
0000
0000
0000
0000
0000
ENDCHAR

STARTCHAR 0073
ENCODING 115
SWIDTH 900 0
DWIDTH 9 0
BBX 9 18 0 -4
BITMAP
0000
0000
0000
0000
7e00
8100
8000
8000
7e00
0100
0100
8100
7e00
0000
0000
0000
0000
0000
ENDCHAR

STARTCHAR 0074
ENCODING 116
SWIDTH 900 0
DWIDTH 9 0
BBX 9 18 0 -4
BITMAP
1000
1000
1000
1000
ff00
1000
1000
1000
1000
1000
1000
1000
0f00
0000
0000
0000
0000
0000
ENDCHAR

STARTCHAR 0075
ENCODING 117
SWIDTH 900 0
DWIDTH 9 0
BBX 9 18 0 -4
BITMAP
0000
0000
0000
0000
8100
8100
8100
8100
8100
8100
8100
8300
7d00
0000
0000
0000
0000
0000
ENDCHAR

STARTCHAR 0076
ENCODING 118
SWIDTH 900 0
DWIDTH 9 0
BBX 9 18 0 -4
BITMAP
0000
0000
0000
0000
8100
8100
8100
4200
4200
2400
2400
1800
1800
0000
0000
0000
0000
0000
ENDCHAR

STARTCHAR 0077
ENCODING 119
SWIDTH 900 0
DWIDTH 9 0
BBX 9 18 0 -4
BITMAP
0000
0000
0000
0000
4100
4100
4900
4900
4900
4900
5500
2200
2200
0000
0000
0000
0000
0000
ENDCHAR

STARTCHAR 0078
ENCODING 120
SWIDTH 900 0
DWIDTH 9 0
BBX 9 18 0 -4
BITMAP
0000
0000
0000
0000
4100
4100
2200
1400
0800
1400
2200
4100
4100
0000
0000
0000
0000
0000
ENDCHAR

STARTCHAR 0079
ENCODING 121
SWIDTH 900 0
DWIDTH 9 0
BBX 9 18 0 -4
BITMAP
0000
0000
0000
0000
8100
8100
8100
8100
8100
8100
8300
7d00
0100
0200
0200
7c00
0000
0000
ENDCHAR

STARTCHAR 007a
ENCODING 122
SWIDTH 900 0
DWIDTH 9 0
BBX 9 18 0 -4
BITMAP
0000
0000
0000
0000
ff00
0200
0400
0800
1000
2000
4000
8000
ff00
0000
0000
0000
0000
0000
ENDCHAR

STARTCHAR 007b
ENCODING 123
SWIDTH 900 0
DWIDTH 9 0
BBX 9 18 0 -4
BITMAP
0000
1c00
2000
2000
2000
2000
4000
2000
2000
2000
2000
2000
1c00
0000
0000
0000
0000
0000
ENDCHAR

STARTCHAR 007c
ENCODING 124
SWIDTH 900 0
DWIDTH 9 0
BBX 9 18 0 -4
BITMAP
0000
0800
0800
0800
0800
0800
0800
0800
0800
0800
0800
0800
0800
0000
0000
0000
0000
0000
ENDCHAR

STARTCHAR 007d
ENCODING 125
SWIDTH 900 0
DWIDTH 9 0
BBX 9 18 0 -4
BITMAP
0000
3800
0400
0400
0400
0400
0200
0400
0400
0400
0400
0400
3800
0000
0000
0000
0000
0000
ENDCHAR

STARTCHAR 007e
ENCODING 126
SWIDTH 900 0
DWIDTH 9 0
BBX 9 18 0 -4
BITMAP
0000
3000
4900
0600
0000
0000
0000
0000
0000
0000
0000
0000
0000
0000
0000
0000
0000
0000
ENDCHAR

STARTCHAR 007f
ENCODING 127
SWIDTH 900 0
DWIDTH 9 0
BBX 9 18 0 -4
BITMAP
0000
0000
0000
0000
0000
0000
0000
0000
0000
0000
0000
0000
0000
0000
0000
0000
0000
0000
ENDCHAR

STARTCHAR 00d7
ENCODING 215
SWIDTH 900 0
DWIDTH 9 0
BBX 9 18 0 -4
BITMAP
4100
4100
4100
2200
2200
1400
1400
0800
1400
2200
2200
4100
4100
0000
0000
0000
0000
0000
ENDCHAR

ENDFONT
